<svg width="506" height="171" viewBox="0 0 506 171" class="ionicon" xmlns="http://www.w3.org/2000/svg">
<path fill="none" d="M98 126H24.2839C15.5333 126 8.40599 133.03 8.28546 141.78L8.22347 146.28C8.10057 155.202 15.2992 162.5 24.222 162.5H97.4972M97.5 162.5C88.6994 162.5 81.5992 155.301 81.7204 146.502L81.7855 141.78C81.906 133.03 89.0333 126 97.784 126H98.5V28M98 27H24.5028C15.6663 27 8.50283 34.1634 8.50283 43V139.5" stroke-width="16" stroke-linecap="round"/>
<path d="M192.808 58.304C192.808 64.2773 191.187 69.312 187.944 73.408C184.787 77.4187 180.52 80.4907 175.144 82.624L198.312 120H174.504L155.304 86.08H149.416V120H128.424V31.296H156.328C168.531 31.296 177.661 33.5147 183.72 37.952C189.779 42.3893 192.808 49.1733 192.808 58.304ZM171.176 58.304C171.176 54.0373 169.939 50.9227 167.464 48.96C165.075 46.9973 161.363 46.016 156.328 46.016H149.416V71.616H157.224C161.832 71.616 165.288 70.5493 167.592 68.416C169.981 66.2827 171.176 62.912 171.176 58.304ZM230.646 67.648H261.366V82.24H230.646V104.896H267.638V120H209.654V31.296H267.638L265.462 46.272H230.646V67.648ZM299.716 100.8L295.108 120H273.092L300.228 31.296H325.7L352.836 120H330.308L325.7 100.8H299.716ZM322.244 85.696L312.644 46.4L303.044 85.696H322.244ZM424.722 75.2C424.722 105.067 410.429 120 381.842 120H357.906V31.296H380.306C393.703 31.296 404.455 34.4533 412.562 40.768C420.669 46.9973 424.722 58.4747 424.722 75.2ZM403.09 75.2C403.09 64.192 401.383 56.6827 397.97 52.672C394.557 48.576 389.693 46.528 383.378 46.528H378.898V104.768H383.378C389.778 104.768 394.642 102.592 397.97 98.24C401.383 93.8027 403.09 86.1227 403.09 75.2ZM499.808 58.304C499.808 64.2773 498.187 69.312 494.944 73.408C491.787 77.4187 487.52 80.4907 482.144 82.624L505.312 120H481.504L462.304 86.08H456.416V120H435.424V31.296H463.328C475.531 31.296 484.661 33.5147 490.72 37.952C496.779 42.3893 499.808 49.1733 499.808 58.304ZM478.176 58.304C478.176 54.0373 476.939 50.9227 474.464 48.96C472.075 46.9973 468.363 46.016 463.328 46.016H456.416V71.616H464.224C468.832 71.616 472.288 70.5493 474.592 68.416C476.981 66.2827 478.176 62.912 478.176 58.304Z"/>
</svg>
